<svg enable-background="new 0 0 105 18" viewBox="0 0 105 18" xmlns="http://www.w3.org/2000/svg"><g fill="#fff"><g transform=""><g enable-background="new"><path d="m59.2 5h1.9v1.3c.5-.8 1.3-1.5 2.6-1.5 1.2 0 2.1.6 2.5 1.5.7-.9 1.6-1.5 2.8-1.5 1.8 0 3 1.2 3 3.2v5.4h-1.9v-4.7c0-1.3-.6-2.1-1.7-2.1s-1.8.7-1.8 2.1v4.8h-1.9v-4.8c0-1.3-.6-2-1.7-2s-1.8.8-1.8 2.1v4.8h-1.9v-8.6z"/><path d="m74.3 10.4v-5.4h1.9v4.8c0 1.3.7 2 1.8 2s1.9-.8 1.9-2.1v-4.7h2v8.5h-2v-1.3c-.5.8-1.3 1.5-2.6 1.5-1.9 0-3-1.3-3-3.3z"/><path d="m83.6 12.4.9-1.3c.9.7 1.9 1 2.8 1 .8 0 1.3-.4 1.3-.9 0-.7-.9-.9-1.9-1.2-1.2-.4-2.6-.9-2.6-2.5 0-1.6 1.3-2.6 3-2.6 1.1 0 2.2.4 3.1 1l-.8 1.4c-.8-.5-1.7-.8-2.4-.8-.8 0-1.2.4-1.2.8 0 .6.9.9 1.9 1.2 1.2.4 2.6.9 2.6 2.5 0 1.8-1.4 2.7-3.1 2.7-1.2 0-2.5-.5-3.6-1.3z"/><path d="m92.4 1.9h2.1v1.8h-2.1zm.1 3.1h1.9v8.5h-1.9z"/><path d="m96.5 9.3c0-2.4 1.9-4.5 4.4-4.5 1.6 0 2.6.6 3.4 1.5l-1.3 1.3c-.6-.6-1.2-1.1-2.2-1.1-1.4 0-2.4 1.2-2.4 2.7 0 1.5 1 2.7 2.5 2.7.9 0 1.6-.4 2.2-1l1.2 1.2c-.8.9-1.8 1.6-3.5 1.6-2.5 0-4.3-2-4.3-4.4z"/></g><path d="m7.7 7.1c.2-.3.5-.5.8-.6.3-.2.7-.3 1-.3.7 0 1.1.2 1.4.5s.4.9.4 1.6v5.1h2.1v-5.3c0-1.1-.3-2-.9-2.6-.5-.7-1.4-1-2.5-1s-2 .3-2.5 1l-.4-.9h-1.5v8.9h2.1z"/><path d="m24.5 6.8c.4-.4.8-.6 1.3-.6.9 0 1.6.2 2 .6.3.5.5 1.2.5 2.2s-.2 1.7-.6 2.1-1.1.7-2 .7c-.5 0-.9-.1-1.3-.4v-4.6zm0 6.4c.5.3 1.1.4 1.7.4 1.3 0 2.3-.4 3.1-1.2.7-.8 1.1-1.9 1.1-3.3 0-3.1-1.4-4.6-4.1-4.6-.7 0-1.3.2-1.8.7v-.6h-2v11.1h2z"/><path d="m43.6 8.5c0-.6.2-1.2.5-1.6s.7-.7 1.2-.7c.4 0 .8.1 1.1.3l.8-1.8c-.4-.2-.9-.3-1.5-.3-.9 0-1.6.3-2.2 1v-.8h-1.9v8.9h1.9v-5z"/><path d="m52.9 18h-52.9v-18h52.9zm-51.9-1h50.9v-16h-50.9z"/></g><path d="m16.9.6h1v17h-1z"/><path d="m34.9.6h1v17h-1z"/></g></svg>