<svg enable-background="new 0 0 105 18" viewBox="0 0 105 18" xmlns="http://www.w3.org/2000/svg"><g fill="#4a4a4a"><g transform=""><g enable-background="new"><path d="m59.2 5.5h1.9v1.3c.5-.8 1.3-1.5 2.6-1.5 1.2 0 2.1.6 2.5 1.5.7-.9 1.6-1.5 2.8-1.5 1.8 0 3 1.2 3 3.2v5.5h-1.9v-4.8c0-1.3-.6-2.1-1.7-2.1s-1.8.7-1.8 2.1v4.8h-1.9v-4.8c0-1.3-.6-2-1.7-2s-1.8.8-1.8 2.1v4.7h-1.9v-8.5z"/><path d="m74.3 10.9v-5.4h1.9v4.8c0 1.3.7 2 1.8 2s1.9-.8 1.9-2.1v-4.7h2v8.5h-2v-1.3c-.5.8-1.3 1.5-2.6 1.5-1.9 0-3-1.3-3-3.3z"/><path d="m83.6 12.9.9-1.3c.9.7 1.9 1 2.8 1 .8 0 1.3-.4 1.3-.9 0-.7-.9-.9-1.9-1.2-1.2-.4-2.6-.9-2.6-2.5 0-1.6 1.3-2.6 3-2.6 1.1 0 2.2.4 3.1 1l-.8 1.4c-.8-.5-1.7-.8-2.4-.8-.8 0-1.2.4-1.2.8 0 .6.9.9 1.9 1.2 1.2.4 2.6.9 2.6 2.5 0 1.8-1.4 2.7-3.1 2.7-1.2 0-2.5-.5-3.6-1.3z"/><path d="m92.4 2.4h2.1v1.8h-2.1zm.1 3.1h1.9v8.5h-1.9z"/><path d="m96.5 9.8c0-2.4 1.9-4.5 4.4-4.5 1.6 0 2.6.6 3.4 1.5l-1.3 1.3c-.6-.6-1.2-1.1-2.2-1.1-1.4 0-2.4 1.2-2.4 2.7 0 1.5 1 2.7 2.5 2.7.9 0 1.6-.4 2.2-1l1.2 1.2c-.8.9-1.8 1.6-3.5 1.6-2.5 0-4.3-2-4.3-4.4z"/></g><path d="m7.5 7.3c.2-.3.5-.5.8-.7s.7-.3 1-.3c.7 0 1.1.2 1.4.5.3.4.4.9.4 1.7v5.2h2.1v-5.5c0-1.1-.3-2-.9-2.7-.6-.6-1.5-1-2.5-1-1.1 0-1.9.3-2.5 1l-.4-.7h-1.5v9h2.1z"/><path d="m24.8 7c.4-.4.8-.6 1.3-.6 1 0 1.7.2 2.1.6s.6 1.2.6 2.2-.2 1.7-.6 2.2-1.1.7-2.1.7c-.5 0-.9-.2-1.3-.5zm0 6.5c.5.3 1.1.4 1.8.4 1.4 0 2.4-.4 3.2-1.2s1.2-1.9 1.2-3.4c0-3.1-1.4-4.7-4.3-4.7-.8 0-1.4.3-1.9.8v-.6h-2.1v11.4h2.1z"/><path d="m53.2 18h-53.2v-18h53.2zm-52.2-1h51.2v-16h-51.2z"/></g><path d="m17.1.3h1v17.5h-1z"/><path d="m35.1.3h1v17.5h-1z"/><path d="m43.5 8.6c0-.6.2-1.1.5-1.6.4-.4.8-.7 1.3-.7.4 0 .9.1 1.2.4l.9-1.8c-.4-.2-.9-.3-1.6-.3-1 0-1.7.3-2.3 1v-.8h-2.1v9h2.1z" transform=""/></g></svg>